
<svg width="80px" height="35px" id="Calque_1" xmlns="http://www.w3.org/2000/svg" xmlns:xlink="http://www.w3.org/1999/xlink" x="0px" y="0px"
	 viewBox="0 0 69.9 32" style="enable-background:new 0 0 69.9 32;" xml:space="preserve">
<style type="text/css">
	.st0{fill:#F5F5F5;}
	.st1{fill:#2CA8FF;}
</style>
<g>
	<path class="st0" d="M3.2,0v20.3c0,1.5,0.6,2.1,1.8,2.1c0.6,0,1-0.2,1.3-0.3v2.7c-0.7,0.3-1.5,0.4-2.3,0.4c-2.6,0-4-1.6-4-4.1V0
		H3.2z"/>
	<path class="st0" d="M25,11.8c0-2.7,2.3-5.2,6.4-5.2c2.5,0,4.5,0.9,5.7,2.1l-2.1,2.2c-0.8-0.9-2.2-1.6-3.7-1.6c-2,0-3,1.1-3,2.3
		c0,3.7,9,2.2,9,8.4c0,2.5-2,5.3-6.7,5.3c-3.3,0-5.6-1.3-6.7-2.4l2-2.4c1,1.1,2.8,2.1,4.9,2.1c2.2,0,3.3-1.1,3.3-2.5
		C34,16.5,25,17.9,25,11.8z"/>
	<path class="st0" d="M39.9,11.8c0-2.7,2.3-5.2,6.4-5.2c2.5,0,4.5,0.9,5.7,2.1l-2.1,2.2C49,10,47.6,9.3,46.1,9.3c-2,0-3,1.1-3,2.3
		c0,3.7,9,2.2,9,8.4c0,2.5-2,5.3-6.7,5.3c-3.3,0-5.6-1.3-6.7-2.4l2-2.4c1,1.1,2.8,2.1,4.9,2.1c2.2,0,3.3-1.1,3.3-2.5
		C48.8,16.5,39.9,17.9,39.9,11.8z"/>
	<path class="st0" d="M54.4,16.1c0-5.6,2.2-9.5,7.9-9.5c5.7,0,7.7,3.7,7.7,9.3c0,5.6-2.2,9.5-7.9,9.5C56.3,25.4,54.4,21.6,54.4,16.1
		z M62.3,22.7c3.2,0,4.3-2.1,4.3-6.6c0-4.6-1.3-6.8-4.5-6.8c-3.1,0-4.3,2.1-4.3,6.6C57.8,20.4,59.1,22.7,62.3,22.7z"/>
	<rect x="38.7" y="29.4" class="st1" width="31.2" height="2.6"/>
	<path class="st1" d="M20.8,12.3v7.9c0,1.5,0.5,2.3,1.6,2.3h0.5v2.3c-0.4,0.2-0.9,0.3-1.4,0.3c-1.8,0-2.8-0.9-3.3-2.1h-0.1
		c-0.8,1-2.2,2.3-5.2,2.3c-3.4,0-5.3-2.4-5.3-4.9c0-4.1,3.9-6,10.1-5.9v-1.8c0-2.7-1.3-3.5-3.5-3.5c-2.2,0-3.3,1.2-3.8,2.1L8.1,9.7
		c0.7-0.9,2.4-3.1,6.2-3.1C18.4,6.6,20.8,8.3,20.8,12.3z M17.7,17.1c-4-0.2-6.9,0.8-6.9,3.2c0,1.4,1,2.6,2.9,2.6c1.8,0,3.3-1,4-2.1
		V17.1z"/>
</g>
</svg>
