<svg id="Calque_1" data-name="Calque 1" xmlns="http://www.w3.org/2000/svg" viewBox="0 0 69.92 32"><defs><style>.cls-1{fill:#f5f5f5;}.cls-2{fill:#00c7ed;}</style></defs><title>lasso logo svg</title><path class="cls-1" d="M3.24,0V20.35c0,1.52.56,2.15,1.78,2.15a3.62,3.62,0,0,0,1.29-.26V24.9A6.4,6.4,0,0,1,4,25.33c-2.64,0-4-1.55-4-4.13V0Z" transform="translate(0 0)"/><path class="cls-1" d="M25,11.83c0-2.74,2.31-5.22,6.37-5.22a7.67,7.67,0,0,1,5.68,2.11L34.94,10.9a5.16,5.16,0,0,0-3.67-1.55c-2,0-3,1.06-3,2.31,0,3.7,9,2.25,9,8.39,0,2.48-2,5.32-6.7,5.32A9.43,9.43,0,0,1,23.85,23l2-2.38a6.94,6.94,0,0,0,4.89,2.08C33,22.66,34,21.54,34,20.18,34,16.52,25,17.94,25,11.83Z" transform="translate(0 0)"/><path class="cls-1" d="M39.86,11.83c0-2.74,2.31-5.22,6.37-5.22a7.67,7.67,0,0,1,5.68,2.11L49.8,10.9a5.16,5.16,0,0,0-3.67-1.55c-2,0-3,1.06-3,2.31,0,3.7,9,2.25,9,8.39,0,2.48-2,5.32-6.7,5.32A9.43,9.43,0,0,1,38.71,23l2-2.38a6.94,6.94,0,0,0,4.89,2.08c2.25,0,3.27-1.12,3.27-2.48C48.85,16.52,39.86,17.94,39.86,11.83Z" transform="translate(0 0)"/><path class="cls-1" d="M54.39,16.05c0-5.61,2.18-9.48,7.86-9.48s7.66,3.73,7.66,9.31-2.18,9.48-7.86,9.48S54.39,21.64,54.39,16.05Zm7.86,6.61c3.17,0,4.29-2.15,4.29-6.57s-1.29-6.8-4.49-6.8-4.29,2.15-4.29,6.57S59.08,22.66,62.25,22.66Z" transform="translate(0 0)"/><rect class="cls-2" x="38.71" y="29.43" width="31.21" height="2.57"/><path class="cls-2" d="M20.81,12.29v7.93c0,1.45.46,2.34,1.62,2.34h.5V24.9a3,3,0,0,1-1.39.33,3.28,3.28,0,0,1-3.3-2.15H18.1a6.2,6.2,0,0,1-5.19,2.31,4.91,4.91,0,0,1-5.28-4.85c0-4.1,3.9-6,10.11-5.88V12.85c0-2.68-1.32-3.47-3.47-3.47a4.15,4.15,0,0,0-3.83,2.15L8.09,9.71a7.3,7.3,0,0,1,6.24-3.1C18.43,6.61,20.81,8.29,20.81,12.29Zm-3.07,4.79c-4-.2-6.87.79-6.87,3.17a2.59,2.59,0,0,0,2.87,2.58,4.82,4.82,0,0,0,4-2.15Z" transform="translate(0 0)"/></svg>
